# Blender 4.4.0
# www.blender.org
mtllib Tap.mtl
o Tap
v -0.534577 0.000000 1.000000
v -1.000000 0.000000 0.534577
v -0.712687 0.000000 0.964572
v -0.863681 0.000000 0.863681
v -0.964572 0.000000 0.712687
v 1.000000 0.000000 0.534577
v 0.534577 0.000000 1.000000
v 0.964572 0.000000 0.712687
v 0.863681 0.000000 0.863681
v 0.712687 0.000000 0.964572
v -0.534577 0.000000 -1.000000
v -1.000000 0.000000 -0.534577
v -0.712687 0.000000 -0.964572
v -0.863681 0.000000 -0.863681
v -0.964572 0.000000 -0.712687
v 0.534577 0.000000 -1.000000
v 1.000000 0.000000 -0.534577
v 0.712687 0.000000 -0.964572
v 0.863681 0.000000 -0.863681
v 0.964572 0.000000 -0.712687
v -0.204659 0.000000 -0.488057
v -0.204659 0.000000 0.488057
v 0.204659 0.000000 0.488057
v 0.204659 0.000000 -0.488057
v -0.777756 0.000000 -0.472970
v -0.777756 0.000000 0.472970
v -0.753165 0.000000 0.596598
v -0.690453 0.000000 0.690453
v -0.596598 0.000000 0.753165
v -0.472970 0.000000 0.777756
v 0.472970 0.000000 0.777756
v 0.596598 0.000000 0.753165
v 0.690453 0.000000 0.690453
v 0.753165 0.000000 0.596598
v 0.777756 0.000000 0.472970
v 0.777756 0.000000 -0.472970
v 0.753165 0.000000 -0.596598
v 0.690453 0.000000 -0.690453
v 0.596598 0.000000 -0.753165
v 0.472970 0.000000 -0.777756
v -0.472970 0.000000 -0.777756
v -0.596598 0.000000 -0.753165
v -0.690453 0.000000 -0.690453
v -0.753165 0.000000 -0.596598
v 0.000000 0.000000 0.777756
v 0.000000 0.000000 -0.777756
v 0.000000 0.000000 1.000000
v 0.000000 0.000000 -1.000000
v 0.000000 0.000000 -0.488057
v -0.000000 0.000000 0.488057
vn -0.0000 1.0000 -0.0000
vt 0.266930 0.820867
vt 0.000000 0.616356
vt 0.266930 0.679133
vt 0.274299 0.660609
vt 0.017714 0.571828
vt 0.293092 0.646546
vt 0.068160 0.534080
vt 0.143657 0.508857
vt 0.321218 0.637150
vt 0.232712 0.500000
vt 0.358265 0.633465
vt 0.500000 0.500000
vt 0.500000 0.633465
vt 0.678783 0.637150
vt 0.767288 0.500000
vt 0.856343 0.508857
vt 0.706908 0.646546
vt 0.931840 0.534080
vt 0.982286 0.571828
vt 0.725701 0.660609
vt 1.000000 0.616356
vt 0.733070 0.679133
vt 1.000000 0.883644
vt 0.733070 0.820867
vt 0.725701 0.839391
vt 0.982286 0.928172
vt 0.706908 0.853454
vt 0.931840 0.965920
vt 0.856343 0.991143
vt 0.678783 0.862850
vt 0.767288 1.000000
vt 0.641735 0.866535
vt 0.500000 1.000000
vt 0.500000 0.866535
vt 0.321217 0.862850
vt 0.232712 1.000000
vt 0.143657 0.991143
vt 0.293092 0.853454
vt 0.068160 0.965920
vt 0.017714 0.928172
vt 0.274299 0.839391
vt 0.000000 0.883644
vt 0.368430 0.406880
vt 0.000000 0.097970
vt 0.368430 0.093120
vt 0.015809 0.058231
vt 0.056125 0.028063
vt 0.116462 0.007905
vt 0.195939 0.000000
vt 0.500000 0.000000
vt 0.500000 0.093120
vt 0.631570 0.093120
vt 0.804061 0.000000
vt 0.883538 0.007905
vt 0.943875 0.028063
vt 0.984191 0.058231
vt 1.000000 0.097970
vt 1.000000 0.402030
vt 0.631570 0.406880
vt 0.984191 0.441769
vt 0.943875 0.471938
vt 0.883538 0.492096
vt 0.804061 0.500000
vt 0.500000 0.500000
vt 0.500000 0.406880
vt 0.195939 0.500000
vt 0.116462 0.492096
vt 0.056125 0.471938
vt 0.015809 0.441769
vt 0.000000 0.402030
vt 0.358265 0.866535
vt 0.641735 0.633465
s 0
usemtl Material
f 25/1/1 2/2/1 26/3/1
f 27/4/1 2/2/1 5/5/1
f 28/6/1 5/5/1 4/7/1
f 28/6/1 3/8/1 29/9/1
f 29/9/1 1/10/1 30/11/1
f 30/11/1 47/12/1 45/13/1
f 32/14/1 7/15/1 10/16/1
f 33/17/1 10/16/1 9/18/1
f 33/17/1 8/19/1 34/20/1
f 34/20/1 6/21/1 35/22/1
f 35/22/1 17/23/1 36/24/1
f 37/25/1 17/23/1 20/26/1
f 38/27/1 20/26/1 19/28/1
f 38/27/1 18/29/1 39/30/1
f 39/30/1 16/31/1 40/32/1
f 40/32/1 48/33/1 46/34/1
f 42/35/1 11/36/1 13/37/1
f 43/38/1 13/37/1 14/39/1
f 43/38/1 15/40/1 44/41/1
f 44/41/1 12/42/1 25/1/1
f 21/43/1 26/44/1 22/45/1
f 22/45/1 26/44/1 27/46/1
f 22/45/1 27/46/1 28/47/1
f 22/45/1 28/47/1 29/48/1
f 22/45/1 29/48/1 30/49/1
f 22/45/1 45/50/1 50/51/1
f 23/52/1 31/53/1 32/54/1
f 23/52/1 32/54/1 33/55/1
f 23/52/1 33/55/1 34/56/1
f 23/52/1 34/56/1 35/57/1
f 23/52/1 36/58/1 24/59/1
f 24/59/1 36/58/1 37/60/1
f 24/59/1 37/60/1 38/61/1
f 24/59/1 38/61/1 39/62/1
f 24/59/1 39/62/1 40/63/1
f 24/59/1 46/64/1 49/65/1
f 21/43/1 41/66/1 42/67/1
f 21/43/1 42/67/1 43/68/1
f 21/43/1 43/68/1 44/69/1
f 21/43/1 44/69/1 25/70/1
f 50/51/1 24/59/1 49/65/1
f 22/45/1 49/65/1 21/43/1
f 21/43/1 46/64/1 41/66/1
f 23/52/1 45/50/1 31/53/1
f 41/71/1 48/33/1 11/36/1
f 31/72/1 47/12/1 7/15/1
f 25/1/1 12/42/1 2/2/1
f 27/4/1 26/3/1 2/2/1
f 28/6/1 27/4/1 5/5/1
f 28/6/1 4/7/1 3/8/1
f 29/9/1 3/8/1 1/10/1
f 30/11/1 1/10/1 47/12/1
f 32/14/1 31/72/1 7/15/1
f 33/17/1 32/14/1 10/16/1
f 33/17/1 9/18/1 8/19/1
f 34/20/1 8/19/1 6/21/1
f 35/22/1 6/21/1 17/23/1
f 37/25/1 36/24/1 17/23/1
f 38/27/1 37/25/1 20/26/1
f 38/27/1 19/28/1 18/29/1
f 39/30/1 18/29/1 16/31/1
f 40/32/1 16/31/1 48/33/1
f 42/35/1 41/71/1 11/36/1
f 43/38/1 42/35/1 13/37/1
f 43/38/1 14/39/1 15/40/1
f 44/41/1 15/40/1 12/42/1
f 21/43/1 25/70/1 26/44/1
f 22/45/1 30/49/1 45/50/1
f 23/52/1 35/57/1 36/58/1
f 24/59/1 40/63/1 46/64/1
f 50/51/1 23/52/1 24/59/1
f 22/45/1 50/51/1 49/65/1
f 21/43/1 49/65/1 46/64/1
f 23/52/1 50/51/1 45/50/1
f 41/71/1 46/34/1 48/33/1
f 31/72/1 45/13/1 47/12/1
