# Blender 4.3.2
# www.blender.org
o Tap
v -0.000000 0.000000 -1.000000
v 0.000000 0.000000 1.000000
v 1.000000 0.000000 0.812966
v 0.812966 0.000000 1.000000
v 0.974942 0.000000 0.906483
v 0.906483 0.000000 0.974942
v 0.812966 0.000000 -1.000000
v 1.000000 0.000000 -0.812966
v 0.906483 0.000000 -0.974942
v 0.974942 0.000000 -0.906483
v -1.000000 0.000000 0.812966
v -0.812966 0.000000 1.000000
v -0.974942 0.000000 0.906483
v -0.906483 0.000000 0.974942
v -1.000000 0.000000 -0.812966
v -0.812966 0.000000 -1.000000
v -0.974942 0.000000 -0.906483
v -0.906483 0.000000 -0.974942
v 0.406483 0.000000 -1.000000
v 0.406483 0.000000 1.000000
v -0.406483 0.000000 -1.000000
v -0.406483 0.000000 1.000000
vn -0.0000 1.0000 -0.0000
vt 0.296758 0.000000
vt 0.296759 1.000000
vt 0.000000 0.906483
vt 0.500000 0.000000
vt 0.500000 1.000000
vt 0.703241 0.000000
vt 0.703241 1.000000
vt 0.987471 0.953241
vt 0.953241 0.987471
vt 0.906483 1.000000
vt 0.093517 1.000000
vt 0.046759 0.987471
vt 0.012529 0.953242
vt 0.000000 0.093517
vt 0.012529 0.046759
vt 0.093517 0.000000
vt 0.046758 0.012529
vt 1.000000 0.906483
vt 0.906483 0.000000
vt 1.000000 0.093517
vt 0.953241 0.012529
vt 0.987471 0.046758
s 1
f 19/1/1 20/2/1 3/3/1
f 20/2/1 1/4/1 2/5/1
f 2/5/1 21/6/1 22/7/1
f 13/8/1 14/9/1 12/10/1
f 20/2/1 4/11/1 3/3/1
f 4/11/1 6/12/1 3/3/1
f 6/12/1 5/13/1 3/3/1
f 3/3/1 8/14/1 19/1/1
f 8/14/1 10/15/1 7/16/1
f 10/15/1 9/17/1 7/16/1
f 7/16/1 19/1/1 8/14/1
f 20/2/1 19/1/1 1/4/1
f 2/5/1 1/4/1 21/6/1
f 12/10/1 22/7/1 11/18/1
f 22/7/1 21/6/1 11/18/1
f 12/10/1 11/18/1 13/8/1
f 21/6/1 16/19/1 15/20/1
f 16/19/1 18/21/1 15/20/1
f 18/21/1 17/22/1 15/20/1
f 15/20/1 11/18/1 21/6/1
