# Blender 4.4.0
# www.blender.org
o TapFX
v -0.534577 0.000000 1.000000
v -1.000000 0.000000 0.534577
v -0.712687 0.000000 0.964572
v -0.863681 0.000000 0.863681
v -0.964572 0.000000 0.712687
v 1.000000 0.000000 0.534577
v 0.534577 0.000000 1.000000
v 0.964572 0.000000 0.712687
v 0.863681 0.000000 0.863681
v 0.712687 0.000000 0.964572
v -0.534577 0.000000 -1.000000
v -1.000000 0.000000 -0.534577
v -0.712687 0.000000 -0.964572
v -0.863681 0.000000 -0.863681
v -0.964572 0.000000 -0.712687
v 0.534577 0.000000 -1.000000
v 1.000000 0.000000 -0.534577
v 0.712687 0.000000 -0.964572
v 0.863681 0.000000 -0.863681
v 0.964572 0.000000 -0.712687
v -0.964572 0.750000 -0.712687
v -0.863681 0.750000 -0.863681
v -0.712687 0.750000 -0.964572
v -0.534577 0.750000 -1.000000
v 0.000000 0.750000 -1.000000
v 0.534577 0.750000 -1.000000
v 0.712687 0.750000 -0.964572
v 0.863681 0.750000 -0.863681
v 0.964572 0.750000 -0.712687
v 1.000000 0.750000 -0.534577
v 1.000000 0.750000 0.534577
v 0.964572 0.750000 0.712687
v 0.863681 0.750000 0.863681
v 0.712687 0.750000 0.964572
v 0.534577 0.750000 1.000000
v 0.000000 0.750000 1.000000
v -0.534577 0.750000 1.000000
v -0.712687 0.750000 0.964572
v -0.863681 0.750000 0.863681
v -0.964572 0.750000 0.712687
v 0.000000 0.000000 1.000000
v 0.000000 0.000000 -1.000000
v -1.000000 0.750000 0.534577
v -1.000000 0.750000 -0.534577
vn -0.0713 -0.6857 0.7244
vn -0.7244 -0.6857 0.0713
vn -0.2856 -0.6657 0.6894
vn -0.5276 -0.6657 0.5276
vn -0.6894 -0.6657 0.2856
vn 0.7244 -0.6857 0.0713
vn 0.0713 -0.6857 0.7244
vn 0.6894 -0.6657 0.2856
vn 0.5276 -0.6657 0.5276
vn 0.2856 -0.6657 0.6894
vn -0.0713 -0.6857 -0.7244
vn -0.7244 -0.6857 -0.0713
vn -0.2856 -0.6657 -0.6894
vn -0.5277 -0.6657 -0.5277
vn -0.6894 -0.6657 -0.2856
vn 0.0713 -0.6857 -0.7244
vn 0.7244 -0.6857 -0.0713
vn 0.2856 -0.6657 -0.6894
vn 0.5277 -0.6657 -0.5277
vn 0.6894 -0.6657 -0.2856
vn -0.6894 0.6657 -0.2856
vn -0.5276 0.6657 -0.5276
vn -0.2856 0.6657 -0.6894
vn -0.0713 0.6857 -0.7244
vn -0.0000 0.7071 -0.7071
vn 0.0713 0.6857 -0.7244
vn 0.2856 0.6657 -0.6894
vn 0.5277 0.6657 -0.5276
vn 0.6894 0.6657 -0.2856
vn 0.7244 0.6857 -0.0713
vn 0.7244 0.6857 0.0713
vn 0.6894 0.6657 0.2856
vn 0.5276 0.6657 0.5276
vn 0.2856 0.6657 0.6894
vn 0.0713 0.6857 0.7244
vn -0.0000 0.7071 0.7071
vn -0.0713 0.6857 0.7244
vn -0.2856 0.6657 0.6894
vn -0.5276 0.6657 0.5276
vn -0.6894 0.6657 0.2856
vn -0.0000 -0.7071 0.7071
vn -0.0000 -0.7071 -0.7071
vn -0.7244 0.6857 0.0713
vn -0.7244 0.6857 -0.0713
vt 0.232712 0.000000
vt 0.143657 1.000000
vt 0.143657 0.000000
vt 0.500000 0.000000
vt 0.767288 1.000000
vt 0.767288 0.000000
vt 0.068160 0.000000
vt 0.143657 1.000000
vt 0.143657 0.000000
vt 1.000000 0.000000
vt 0.982286 1.000000
vt 0.982286 0.000000
vt 0.856343 0.000000
vt 0.767288 1.000000
vt 0.767288 0.000000
vt 0.068160 0.000000
vt 0.017714 1.000000
vt 0.017714 0.000000
vt 0.931840 0.000000
vt 0.856343 1.000000
vt 0.000000 0.000000
vt 0.000000 1.000000
vt 0.856343 1.000000
vt 0.856343 0.000000
vt 0.232712 0.000000
vt 0.500000 1.000000
vt 0.500000 0.000000
vt 0.232712 1.000000
vt 0.017714 0.000000
vt 0.068160 1.000000
vt 0.017714 1.000000
vt 0.500000 1.000000
vt 0.068160 1.000000
vt 1.000000 1.000000
vt 0.931840 1.000000
vt 0.931840 0.000000
vt 0.000000 1.000000
vt 0.982286 0.000000
vt 1.000000 1.000000
vt 0.931840 1.000000
vt 0.232712 1.000000
vt 0.982286 1.000000
s 1
f 16/1/16 27/2/27 18/3/18
f 41/4/41 37/5/37 1/6/1
f 9/7/9 34/8/34 10/9/10
f 12/10/12 21/11/21 15/12/15
f 13/13/13 24/14/24 11/15/11
f 19/16/19 29/17/29 20/18/20
f 14/19/14 23/20/23 13/13/13
f 17/21/17 31/22/31 6/21/6
f 1/6/1 38/23/38 3/24/3
f 7/25/7 36/26/36 41/4/41
f 42/27/42 26/28/26 16/1/16
f 8/29/8 33/30/33 9/7/9
f 6/21/6 32/31/32 8/29/8
f 11/15/11 25/32/25 42/27/42
f 19/16/19 41/4/41 14/19/14
f 18/3/18 28/33/28 19/16/19
f 25/32/25 44/34/44 34/8/34
f 3/24/3 39/35/39 4/36/4
f 20/18/20 30/37/30 17/21/17
f 5/38/5 43/39/43 2/10/2
f 2/10/2 44/34/44 12/10/12
f 15/12/15 22/40/22 14/19/14
f 10/9/10 35/41/35 7/25/7
f 4/36/4 40/42/40 5/38/5
f 16/1/16 26/28/26 27/2/27
f 41/4/41 36/26/36 37/5/37
f 9/7/9 33/30/33 34/8/34
f 12/10/12 44/34/44 21/11/21
f 13/13/13 23/20/23 24/14/24
f 19/16/19 28/33/28 29/17/29
f 14/19/14 22/40/22 23/20/23
f 17/21/17 30/37/30 31/22/31
f 1/6/1 37/5/37 38/23/38
f 7/25/7 35/41/35 36/26/36
f 42/27/42 25/32/25 26/28/26
f 8/29/8 32/31/32 33/30/33
f 6/21/6 31/22/31 32/31/32
f 11/15/11 24/14/24 25/32/25
f 16/1/16 18/3/18 19/16/19
f 19/16/19 20/18/20 17/21/17
f 17/21/17 6/21/6 8/29/8
f 8/29/8 9/7/9 10/9/10
f 10/9/10 7/25/7 41/4/41
f 41/4/41 1/6/1 3/24/3
f 3/24/3 4/36/4 5/38/5
f 5/38/5 2/10/2 12/10/12
f 12/10/12 15/12/15 14/19/14
f 14/19/14 13/13/13 11/15/11
f 42/27/42 16/1/16 19/16/19
f 14/19/14 11/15/11 42/27/42
f 5/38/5 12/10/12 14/19/14
f 41/4/41 3/24/3 5/38/5
f 8/29/8 10/9/10 41/4/41
f 19/16/19 17/21/17 8/29/8
f 14/19/14 42/27/42 19/16/19
f 41/4/41 5/38/5 14/19/14
f 19/16/19 8/29/8 41/4/41
f 18/3/18 27/2/27 28/33/28
f 28/33/28 27/2/27 26/28/26
f 25/32/25 24/14/24 23/20/23
f 28/33/28 26/28/26 25/32/25
f 30/37/30 29/17/29 28/33/28
f 32/31/32 31/22/31 30/37/30
f 34/8/34 33/30/33 32/31/32
f 36/26/36 35/41/35 34/8/34
f 38/23/38 37/5/37 36/26/36
f 40/42/40 39/35/39 38/23/38
f 44/34/44 43/39/43 40/42/40
f 22/40/22 21/11/21 44/34/44
f 25/32/25 23/20/23 22/40/22
f 30/37/30 28/33/28 25/32/25
f 34/8/34 32/31/32 30/37/30
f 38/23/38 36/26/36 34/8/34
f 44/34/44 40/42/40 38/23/38
f 25/32/25 22/40/22 44/34/44
f 34/8/34 30/37/30 25/32/25
f 44/34/44 38/23/38 34/8/34
f 3/24/3 38/23/38 39/35/39
f 20/18/20 29/17/29 30/37/30
f 5/38/5 40/42/40 43/39/43
f 2/10/2 43/39/43 44/34/44
f 15/12/15 21/11/21 22/40/22
f 10/9/10 34/8/34 35/41/35
f 4/36/4 39/35/39 40/42/40
